<?xml version="1.0" encoding="utf-8"?>
<!-- Generator: Adobe Illustrator 24.3.0, SVG Export Plug-In . SVG Version: 6.00 Build 0)  -->
<svg version="1.1" xmlns="http://www.w3.org/2000/svg" xmlns:xlink="http://www.w3.org/1999/xlink" x="0px" y="0px"
	 viewBox="0 0 800 800" style="enable-background:new 0 0 800 800;" xml:space="preserve">
<style type="text/css">
	.st0{fill:#FFFFFF;stroke:#00589A;stroke-miterlimit:10;}
	.st1{fill:#00589A;stroke:#FFFFFF;stroke-miterlimit:10;}
</style>
<g id="Vrstva_2">
	<rect x="0.9" y="-2.9" class="st0" width="799.7" height="805.8"/>
</g>
<g id="Layer_1">
	<g>
		<g>
			<path class="st1" d="M728.1,571.6H630l0,0h-84.9l0,0h-84.9l0,0h-75.1l16.6-217.7h4c22,0,39.8-17.9,39.8-40v-9.1
				c0-19.7-14.4-36.3-33.3-39.5v-42.6c0-7-5.7-12.6-12.6-12.6h-65.8L395,31.6c2.3-6.6-1.2-13.8-7.8-16L344.5,0.7
				c-3.2-1.1-6.6-0.9-9.6,0.6c-3,1.5-5.3,4.1-6.4,7.2l-69,201.4H45.8c-7,0-12.6,5.7-12.6,12.6v42.6C14.4,268.4,0,284.8,0,304.7v9.1
				c0,22,17.9,40,39.8,40h4L77,789.5c0.5,6.6,6,11.7,12.6,11.7h159.1h334.6c7,0,12.6-5.7,12.6-12.6c0-6.9-5.7-12.6-12.6-12.6H248.7
				c-26.5,0-47.9-21.5-47.9-48.1v-24.5c0-0.6,0-1.2,0.1-1.8l0,0c0.1-1.5,0.2-3,0.4-4.5c0-0.1,0-0.3,0.1-0.4c0.1-0.5,0.2-1,0.2-1.5
				c0.1-0.3,0.1-0.7,0.2-1c0.1-0.3,0.1-0.6,0.2-0.9c0.1-0.5,0.2-1.1,0.4-1.6c0-0.1,0-0.2,0.1-0.3c5.2-19.8,22.8-34.8,43.8-35.9
				c0,0,0,0,0.1,0c0.8,0,1.6-0.1,2.5-0.1h410.8c0.8,0,1.6,0,2.5,0.1h0.1c21.1,1.1,38.7,15.9,43.8,35.8c0,0.1,0.1,0.3,0.1,0.4
				c0.1,0.5,0.2,1,0.3,1.5c0.1,0.4,0.2,0.7,0.2,1.1c0.1,0.3,0.1,0.5,0.1,0.8c0.1,0.6,0.2,1.1,0.3,1.7c0,0.1,0,0.2,0,0.3
				c0.2,1.5,0.3,3,0.4,4.6c0,0,0,0,0,0.1c0,0.6,0,1.2,0,1.8v24.5c0,26.5-21.5,48.1-47.9,48.1h-34.7c-7,0-12.6,5.7-12.6,12.6
				c0,6.9,5.7,12.6,12.6,12.6h34.7c40.3,0,73.2-32.9,73.2-73.4v-14.3c37-2.4,66.2-33.2,66.2-70.9C799,603.4,767.2,571.6,728.1,571.6
				z M348.2,28.7l18.9,6.5L307.2,210h-21.1L348.2,28.7z M58.4,235.3h209.9h47.7H387v29.3H58.4V235.3z M39.8,328.5
				c-8.1,0-14.7-6.6-14.7-14.7v-9.1c0-8.1,6.6-14.7,14.7-14.7h6h353.8h6c8.1,0,14.7,6.6,14.7,14.7v9.1c0,8.1-6.6,14.7-14.7,14.7H390
				H55.5H39.8z M101.4,775.9L101.4,775.9L72.3,394.7h218.1c7,0,12.6-5.7,12.6-12.6c0-7-5.7-12.6-12.6-12.6h-220l-1.2-15.6h307.1
				l-1.2,15.6h-46c-7,0-12.6,5.7-12.6,12.6c0,7,5.7,12.6,12.6,12.6h44.1l-13.5,176.9h-69.3l0,0H180.3c-39.1,0-70.8,31.8-70.8,71
				c0,1.2,0,2.4,0.1,3.6c0,0.4,0.1,0.8,0.1,1.2c0.1,0.8,0.1,1.6,0.2,2.3c0,0.5,0.1,0.9,0.2,1.4c0.1,0.7,0.2,1.4,0.3,2.1
				c0.1,0.5,0.2,1,0.3,1.5c0.1,0.7,0.2,1.3,0.4,2c0.1,0.5,0.2,1,0.3,1.5c0.1,0.6,0.3,1.3,0.4,1.9c0.1,0.5,0.3,1,0.4,1.5
				c0.2,0.6,0.3,1.2,0.5,1.8c0.2,0.5,0.3,1,0.5,1.5c0.2,0.6,0.4,1.2,0.6,1.8c0.2,0.5,0.4,1,0.6,1.5c0.2,0.6,0.4,1.1,0.7,1.7
				c0.2,0.5,0.4,1,0.6,1.4c0.2,0.6,0.5,1.1,0.7,1.6c0.2,0.5,0.5,0.9,0.7,1.4c0.3,0.5,0.5,1.1,0.8,1.6c0.2,0.5,0.5,0.9,0.8,1.4
				s0.6,1,0.9,1.6c0.3,0.5,0.5,0.9,0.8,1.3c0.3,0.5,0.6,1,1,1.5c0.3,0.4,0.6,0.9,0.9,1.3c0.3,0.5,0.7,1,1,1.5
				c0.3,0.4,0.6,0.8,0.9,1.3c0.4,0.5,0.7,0.9,1.1,1.4c0.3,0.4,0.7,0.8,1,1.2c0.4,0.5,0.8,0.9,1.2,1.4c0.3,0.4,0.7,0.8,1,1.2
				c0.4,0.4,0.8,0.9,1.2,1.3c0.4,0.4,0.7,0.7,1.1,1.1c0.4,0.4,0.9,0.8,1.3,1.2c0.4,0.3,0.7,0.7,1.1,1c0.5,0.4,0.9,0.8,1.4,1.2
				c0.4,0.3,0.8,0.7,1.2,1c0.5,0.4,1,0.8,1.4,1.1c0.4,0.3,0.8,0.6,1.2,0.9c0.5,0.4,1,0.7,1.5,1.1c0.4,0.3,0.8,0.6,1.2,0.8
				c0.5,0.4,1.1,0.7,1.6,1c0.4,0.3,0.8,0.5,1.2,0.8c0.6,0.3,1.2,0.7,1.8,1c0.4,0.2,0.8,0.5,1.2,0.7c0.6,0.3,1.3,0.7,2,1
				c0.3,0.2,0.7,0.4,1,0.5c1,0.5,1.9,0.9,2.9,1.3c0.1,0,0.1,0.1,0.2,0.1c1,0.4,2.1,0.9,3.2,1.2c0.4,0.1,0.8,0.3,1.1,0.4
				c0.7,0.2,1.4,0.5,2.1,0.7c0.5,0.1,0.9,0.3,1.4,0.4c0.6,0.2,1.3,0.4,1.9,0.5c0.5,0.1,1,0.2,1.5,0.4c0.6,0.1,1.2,0.3,1.9,0.4
				c0.5,0.1,1,0.2,1.6,0.3c0.6,0.1,1.2,0.2,1.8,0.3c0.5,0.1,1.1,0.2,1.6,0.2c0.6,0.1,1.2,0.2,1.8,0.2c0.6,0.1,1.1,0.1,1.7,0.1
				c0.4,0,0.9,0.1,1.3,0.1v14.3c0,1.2,0,2.4,0.1,3.6c0,0.4,0.1,0.8,0.1,1.2c0.1,0.8,0.1,1.6,0.2,2.4c0,0.5,0.1,0.9,0.2,1.4
				c0.1,0.7,0.2,1.4,0.3,2.1c0.1,0.5,0.2,1,0.2,1.4c0.1,0.7,0.2,1.4,0.4,2c0.1,0.5,0.2,1,0.3,1.5c0.1,0.7,0.3,1.3,0.5,2
				c0.1,0.5,0.2,1,0.4,1.4c0.2,0.6,0.4,1.3,0.5,1.9c0.1,0.5,0.3,0.9,0.4,1.4c0.2,0.6,0.4,1.3,0.7,1.9c0.2,0.4,0.3,0.9,0.5,1.3
				c0.2,0.7,0.5,1.3,0.8,2c0.2,0.4,0.3,0.8,0.5,1.2c0.3,0.7,0.6,1.4,1,2.2c0.1,0.3,0.3,0.6,0.4,0.9c0.5,1,1,2,1.6,3
				c0,0.1,0.1,0.1,0.1,0.2c0.5,0.9,1,1.9,1.6,2.8c0.2,0.3,0.4,0.6,0.6,0.9c0.4,0.6,0.8,1.3,1.2,1.9c0.2,0.4,0.5,0.7,0.8,1.1
				c0.4,0.6,0.8,1.1,1.2,1.7c0.3,0.4,0.6,0.7,0.8,1.1c0.4,0.5,0.8,1,1.2,1.6c0.3,0.4,0.6,0.7,0.9,1.1c0.2,0.3,0.4,0.5,0.7,0.8
				L101.4,775.9L101.4,775.9z M731.3,688.2c-6.2-29.8-30.2-52.8-60.3-57.4c-0.1,0-0.2,0-0.3,0c-1-0.1-2-0.3-3-0.4
				c-0.2,0-0.5-0.1-0.7-0.1c-0.9-0.1-1.9-0.2-2.8-0.2c-0.3,0-0.6,0-0.9-0.1c-1.2-0.1-2.4-0.1-3.6-0.1H248.8c-1.2,0-2.4,0-3.6,0.1
				c-0.3,0-0.6,0-0.8,0.1c-0.9,0.1-1.9,0.1-2.8,0.2c-0.2,0-0.5,0.1-0.7,0.1c-1,0.1-2,0.2-3.1,0.4c-0.1,0-0.2,0-0.3,0
				c-30.2,4.6-54.2,27.5-60.3,57.4c-0.3,0-0.6,0-0.9-0.1c-0.3,0-0.7-0.1-1-0.1c-0.4,0-0.8-0.1-1.3-0.2c-0.3,0-0.7-0.1-1-0.1
				c-0.4-0.1-0.8-0.1-1.3-0.2c-0.3-0.1-0.6-0.1-1-0.2c-0.4-0.1-0.8-0.2-1.2-0.3c-0.3-0.1-0.6-0.1-0.9-0.2c-0.4-0.1-0.8-0.2-1.2-0.4
				c-0.3-0.1-0.6-0.2-0.9-0.3c-0.4-0.1-0.9-0.3-1.3-0.4c-0.3-0.1-0.5-0.2-0.8-0.3c-0.5-0.2-0.9-0.4-1.4-0.5
				c-0.2-0.1-0.4-0.2-0.6-0.3c-0.7-0.3-1.3-0.6-2-0.9c-0.1-0.1-0.2-0.1-0.3-0.2c-0.5-0.3-1.1-0.5-1.6-0.8c-0.2-0.1-0.5-0.3-0.7-0.4
				c-0.4-0.2-0.8-0.4-1.2-0.7c-0.3-0.2-0.5-0.3-0.8-0.5s-0.7-0.4-1-0.7c-0.3-0.2-0.5-0.4-0.8-0.6c-0.3-0.2-0.6-0.5-1-0.7
				c-0.3-0.2-0.5-0.4-0.8-0.6c-0.3-0.2-0.6-0.5-0.9-0.7c-0.3-0.2-0.5-0.4-0.8-0.7c-0.3-0.2-0.6-0.5-0.9-0.7
				c-0.3-0.2-0.5-0.5-0.7-0.7c-0.3-0.3-0.5-0.5-0.8-0.8c-0.2-0.2-0.5-0.5-0.7-0.7c-0.3-0.3-0.5-0.5-0.8-0.8
				c-0.2-0.3-0.5-0.5-0.7-0.8c-0.2-0.3-0.5-0.6-0.7-0.8c-0.2-0.3-0.4-0.5-0.7-0.8c-0.2-0.3-0.5-0.6-0.7-0.9
				c-0.2-0.3-0.4-0.5-0.6-0.8c-0.2-0.3-0.4-0.6-0.7-0.9c-0.2-0.3-0.4-0.6-0.6-0.9c-0.2-0.3-0.4-0.6-0.6-0.9
				c-0.2-0.3-0.4-0.6-0.5-0.9c-0.2-0.3-0.4-0.6-0.6-1c-0.2-0.3-0.3-0.6-0.5-0.9c-0.2-0.3-0.3-0.7-0.5-1c-0.2-0.3-0.3-0.6-0.5-0.9
				c-0.2-0.3-0.3-0.7-0.5-1c-0.1-0.3-0.3-0.6-0.4-0.9c-0.1-0.4-0.3-0.7-0.4-1.1c-0.1-0.3-0.2-0.6-0.4-1c-0.1-0.4-0.3-0.7-0.4-1.1
				c-0.1-0.3-0.2-0.6-0.3-1c-0.1-0.4-0.2-0.8-0.3-1.1c-0.1-0.3-0.2-0.6-0.3-1s-0.2-0.8-0.3-1.2c-0.1-0.3-0.1-0.6-0.2-1
				c-0.1-0.4-0.2-0.8-0.2-1.3c-0.1-0.3-0.1-0.6-0.2-0.9c-0.1-0.4-0.1-0.9-0.2-1.3c0-0.3-0.1-0.6-0.1-0.9c0-0.5-0.1-1-0.1-1.5
				c0-0.3,0-0.5-0.1-0.8c0-0.8-0.1-1.5-0.1-2.3c0-25.2,20.5-45.8,45.6-45.8h74.9c-4.9,4.5-5.5,12.1-1.2,17.3c2.5,3,6.1,4.6,9.8,4.6
				c2.8,0,5.7-0.9,8-2.9l23.2-19.1h45.1c-4.9,4.5-5.5,12.1-1.2,17.3c2.5,3,6.1,4.6,9.8,4.6c2.8,0,5.7-0.9,8-2.9l23.2-19.1h45.1
				c-4.9,4.5-5.5,12.1-1.2,17.3c2.5,3,6.1,4.6,9.8,4.6c2.8,0,5.7-0.9,8-2.9l23.2-19.1h45.1c-4.9,4.5-5.5,12.1-1.2,17.3
				c2.5,3,6.1,4.6,9.8,4.6c2.8,0,5.7-0.9,8-2.9l23.2-19.1h45.1c-4.9,4.5-5.5,12.1-1.2,17.3c2.5,3,6.1,4.6,9.8,4.6
				c2.8,0,5.7-0.9,8-2.9l23.2-19.1h94c25.2,0,45.6,20.5,45.6,45.8C773.7,666.8,754.9,686.6,731.3,688.2z"/>
		</g>
	</g>
</g>
</svg>
