<?xml version="1.0" encoding="utf-8"?>
<!-- Generator: Adobe Illustrator 24.3.0, SVG Export Plug-In . SVG Version: 6.00 Build 0)  -->
<svg version="1.1" id="Layer_1" xmlns="http://www.w3.org/2000/svg" xmlns:xlink="http://www.w3.org/1999/xlink" x="0px" y="0px"
	 viewBox="0 0 480 480" style="enable-background:new 0 0 480 480;" xml:space="preserve">
<style type="text/css">
	.st0{fill:#00589A;}
	.st1{display:none;}
	.st2{display:inline;fill:#E5E8E8;}
	.st3{fill:#E5E8E8;}
</style>
<rect x="16" y="24" class="st0" width="24" height="16"/>
<path class="st0" d="M56,48h8h40v16H72v204.1l168,145.1l168-145.1V64h-32V48h40h8V16H56V48z M216,327.8h-16v-16h16V327.8z
	 M248,359.8h-16v-16h16V359.8z M248,327.8h-16v-16h16V327.8z M280,327.8h-16v-16h16V327.8z M240,71.8c61.8,0,112,50.2,112,112
	s-50.2,112-112,112s-112-50.2-112-112C128,122.1,178.2,71.8,240,71.8z"/>
<rect x="440" y="24" class="st0" width="24" height="16"/>
<g class="st1">
	<path class="st2" d="M219.3,232l-32.1,32c15.2,10,33.3,15.9,52.8,15.9s37.6-5.8,52.8-15.8l-32.1-32h-41.4V232z"/>
	<path class="st2" d="M322.2,134.5C306.7,108.7,280,90.8,248,88.2v51.1l32.1,19.3L322.2,134.5z"/>
	<path class="st2" d="M273,221.5l32.4,32.4c18.8-17.5,30.6-42.4,30.6-70.1c0-12.3-2.4-24.1-6.7-35l-42.5,24.3L273,221.5z"/>
	<path class="st2" d="M207,221.5l-11.1-38.8l-47.7-27.2c-2.8,9-4.3,18.5-4.3,28.3c0,27.7,11.8,52.6,30.6,70.1L207,221.5z"/>
</g>
<polygon class="st0" points="222,216 258,216 270.6,171.6 240,153.2 209.4,171.6 "/>
<path class="st3" d="M195.9,161l36.1-21.7V88.2c-32,2.8-62.9,23.4-77.6,52.3l39.3,22.4C194.3,162.2,195,161.5,195.9,161z"/>
<g>
	<path d="M472,8h-32c0-8-3.6-8-8-8H48c-4.4,0-8,0-8,8H8c-4.4,0-8,3.4-8,7.8v32C0,52.2,3.6,56,8,56h32c0,8,3.6,8,8,8h8v207.8
		c0,2.3,1,4.5,2.8,6.1L72,289.3V344h16v-40.9l16,13.8V368h16v-37.3l16,13.8V400h16v-41.6l16,13.8V424h16v-38l16,13.8V448h16v-34.3
		l16,13.8V480h16v-52.5l16-13.8V448h16v-48.2l16-13.8v38h16v-51.8l16-13.8V400h16v-55.4l16-13.8V368h16v-51.1l16-13.8V344h16v-54.7
		l13.2-11.4c1.8-1.5,2.8-3.7,2.8-6.1V64h8c4.4,0,8,0,8-8h32c4.4,0,8-3.8,8-8.2v-32C480,11.4,476.4,8,472,8z M40,40H16V24h24V40z
		 M424,48h-8h-40v16h32v204.1L240,413.2L72,268.1V64h32V48H64h-8V16h368V48z M464,40h-24V24h24V40z"/>
	<path d="M240,295.8c61.8,0,112-50.2,112-112s-50.2-112-112-112s-112,50.2-112,112S178.2,295.8,240,295.8z M240,279.8
		c-19.5,0-37.6-5.8-52.8-15.8l32.1-32h41.4l32.1,32C277.6,274,259.5,279.8,240,279.8z M336,183.8c0,27.7-11.8,52.6-30.6,70.1
		L273,221.5l13.8-48.3l42.5-24.3C333.6,159.7,336,171.5,336,183.8z M248,88.2c32,2.6,58.7,20.5,74.2,46.3l-42.1,24.1L248,139.3V88.2
		z M270.6,171.6L258,216h-36l-12.7-44.4l30.6-18.4L270.6,171.6z M232,88.2v51.1L195.9,161c-0.9,0.5-1.6,1.2-2.2,2l-39.3-22.4
		C169.1,111.6,200,91,232,88.2z M148.3,155.5l47.7,27.2l11.1,38.8l-32.4,32.4c-18.8-17.5-30.6-42.4-30.6-70.1
		C144,174,145.5,164.4,148.3,155.5z"/>
	<rect x="200" y="311.8" class="st0" width="16" height="16"/>
	<rect x="232" y="311.8" class="st0" width="16" height="16"/>
	<rect x="264" y="311.8" class="st0" width="16" height="16"/>
	<rect x="232" y="343.8" class="st0" width="16" height="16"/>
</g>
</svg>
