<?xml version="1.0" encoding="utf-8"?>
<!-- Generator: Adobe Illustrator 24.3.0, SVG Export Plug-In . SVG Version: 6.00 Build 0)  -->
<svg version="1.1" xmlns="http://www.w3.org/2000/svg" xmlns:xlink="http://www.w3.org/1999/xlink" x="0px" y="0px"
	 viewBox="0 0 110 54" style="enable-background:new 0 0 110 54;" xml:space="preserve">
<style type="text/css">
	.st0{fill:#FFFFFF;}
	.st1{fill:#00589A;}
</style>
<g id="Vrstva_2">
	<rect x="5.9" y="0.7" class="st0" width="101.7" height="52.6"/>
</g>
<g id="Vrstva_1">
	<path class="st1" d="M7.6,33.5h30.9c0.1,0,0.1-0.1,0.2-0.1v-3.5c0-0.4-30.9,0-31-0.1c-0.1,0-0.2,0.1-0.2,0.2L7.6,33.5
		C7.4,33.4,7.5,33.5,7.6,33.5L7.6,33.5z M35.1,27.4H11V8.8c0-3,2.4-5.4,5.4-5.4h10.2c1.8,0,4.6-0.3,6.1,0.9c1.4,1,2.4,2.6,2.4,4.5
		V27.4z M27.4,6.9h-8.8c-3.8,0.1-3.8,5.7,0,5.8h8.8C31.3,12.6,31.3,7,27.4,6.9z M27.4,9.1h-8.8c-0.4,0-0.7,0.3-0.7,0.7
		s0.3,0.7,0.7,0.7h8.8c0.4,0,0.7-0.3,0.7-0.7C28.1,9.4,27.8,9.1,27.4,9.1z M49.9,3.4h10.2h3.1c3,0,5.4,2.4,5.4,5.4v1.8l0,0v16.8
		H44.5V8.8C44.5,5.8,46.9,3.4,49.9,3.4L49.9,3.4z M52.1,12.7h8.8c3.8-0.1,3.8-5.7,0-5.8h-8.8C48.3,7,48.3,12.6,52.1,12.7z
		 M52.1,10.4h8.8c0.4,0,0.7-0.3,0.7-0.7S61.3,9,60.9,9h-8.8c-0.4,0-0.7,0.3-0.7,0.7C51.5,10.1,51.8,10.4,52.1,10.4z M72,33.5
		c0.1,0,0.2-0.1,0.2-0.2v-3.4c0-0.1-0.1-0.2-0.2-0.2H41.1c-0.1,0-0.1,0.1-0.2,0.1v3.5C40.9,33.7,71.8,33.3,72,33.5L72,33.5z
		 M96.6,3.4c3,0,5.4,2.4,5.4,5.4v18.6H77.9V10.6V8.8c0-3,2.4-5.4,5.4-5.4C85.4,3.4,94.3,3.4,96.6,3.4L96.6,3.4z M85.6,6.9
		c-3.8,0.1-3.8,5.7,0,5.8h8.8c3.8-0.1,3.8-5.7,0-5.8C94.4,6.9,85.6,6.9,85.6,6.9z M85.6,10.4h8.8c0.4,0,0.7-0.3,0.7-0.7
		S94.8,9,94.4,9h-8.8c-0.4,0-0.7,0.3-0.7,0.7C84.9,10.1,85.2,10.4,85.6,10.4z M74.4,29.8v3.5c0,0.1,0.1,0.1,0.2,0.1h30.9
		c0.1,0,0.2-0.1,0.2-0.2v-3.4c0-0.1-0.1-0.2-0.2-0.2C105.3,29.8,74.4,29.4,74.4,29.8L74.4,29.8z M91.5,50.7v-15h-3v15H91.5z
		 M58,50.7v-15h-3v15H58z M24.6,50.7v-15h-3v15H24.6z"/>
</g>
</svg>
