<?xml version="1.0" encoding="utf-8"?>
<!-- Generator: Adobe Illustrator 24.3.0, SVG Export Plug-In . SVG Version: 6.00 Build 0)  -->
<svg version="1.1" xmlns="http://www.w3.org/2000/svg" xmlns:xlink="http://www.w3.org/1999/xlink" x="0px" y="0px"
	 viewBox="0 0 800 800" style="enable-background:new 0 0 800 800;" xml:space="preserve">
<style type="text/css">
	.st0{fill:#FFFFFF;stroke:#000000;stroke-miterlimit:10;}
	.st1{fill:#00589A;}
</style>
<g id="Vrstva_2">
	<rect y="0" class="st0" width="800" height="800"/>
</g>
<g id="Layer_1">
	<g>
		<g>
			<path class="st1" d="M0,0v800h140h660V140V0H0z M187.5,752.5v-75H310V555h122.5V432.5H555V310h122.5V187.5h75v565H187.5
				L187.5,752.5z M752.5,140H630l0,0v122.5H507.5V385H385v122.5H262.5V630H140v122.5H47.5v-705h704.9L752.5,140L752.5,140z"/>
		</g>
	</g>
	<g>
		<g>
			<polygon class="st1" points="151.2,92.1 151.2,139.7 265,139.7 84.8,319.8 118.4,353.4 298.6,173.3 298.6,287 346.1,287 
				346.1,92.1 			"/>
		</g>
	</g>
</g>
</svg>
