<?xml version="1.0" encoding="utf-8"?>
<!-- Generator: Adobe Illustrator 24.3.0, SVG Export Plug-In . SVG Version: 6.00 Build 0)  -->
<svg version="1.1" xmlns="http://www.w3.org/2000/svg" xmlns:xlink="http://www.w3.org/1999/xlink" x="0px" y="0px"
	 viewBox="0 0 233 159.5" style="enable-background:new 0 0 233 159.5;" xml:space="preserve">
<style type="text/css">
	.st0{fill:#FFFFFF;}
	.st1{fill:#00589A;}
</style>
<g id="Vrstva_2">
	<rect x="20.7" y="22.3" class="st0" width="200.9" height="126"/>
</g>
<g id="Vrstva_1">
	<g id="Vrstva_2_1_">
		<g id="Vrstva_1-2">
			<path class="st1" d="M171,41.3c-9.8,2.6-15.8,7.1-21.6,16c-5.3,8.2-7.3,17.7-6.6,31.6c0.6,12.2,2.3,18.7,6.8,25.5
				c7.1,10.7,17.7,15.9,32.4,15.9c15-0.1,25.4-6.4,32-19.5c1.9-3.9,3.5-8.1,3.5-9.4c0-2.3-0.2-2.4-8.9-2.4c-8.9,0-8.9,0-9.6,2.7
				c-2,7.9-9.2,13.4-17.3,13.3c-5.3,0.1-10.4-2.1-13.9-6.1c-10.6-11.2-9.1-40.8,2.4-49.7c2.9-2.1,4.9-2.7,10.3-3
				c9.4-0.6,13.9,1.8,17.5,9.3l2.7,5.5h8.4c4.5,0,8.5-0.3,8.7-0.8c1-1.6-2.2-10.5-5.4-15.2c-6.3-9.2-15.5-13.9-28.9-14.6
				C179.3,40.2,175.1,40.5,171,41.3z"/>
			<path class="st1" d="M25.5,42.5c0,0.2,4.9,17.7,10.9,38.9s11.5,40.3,12.1,42.5l1.1,4.1H58c7.1,0,8.4-0.3,8.9-1.8
				c0.3-0.9,3.3-15.4,6.6-32.2s6.3-30.6,6.5-30.8c0.6,2,1.1,4,1.4,6c1.9,10,11.2,55.1,11.7,57.1c0.5,1.6,1.6,1.7,9.2,1.5l8.6-0.3
				l2.7-9.5c1.4-5.2,6.5-23.2,11.2-40s8.9-31.7,9.2-33.3l0.7-2.7h-9c-9,0-9,0-9.7,2.7c-2.9,11.9-12.5,54.8-12.5,56.3
				c0,1.1-0.4,2-1,2s-1-0.8-1-1.9c0-1.5-9.5-48.6-11.5-56.9c-0.5-2.1-1-2.2-10-2.2s-9.5,0.1-10,2.2c-0.2,1.3-2.7,14-5.5,28.3
				c-6.6,34.2-6,32.3-7.6,24.5c-1.6-7.5-11.3-50.7-12-53.3c-0.5-1.5-1.8-1.7-10-1.7C29.7,42,25.5,42.2,25.5,42.5z"/>
		</g>
	</g>
</g>
</svg>
